ffmpeg version N-82167-g5e96558 Copyright (c) 2000-2016 the FFmpeg developers
  built with gcc 5.4.0 (Ubuntu 5.4.0-6ubuntu1~16.04.2) 20160609
  configuration: --prefix=/root/ffmpeg_build --pkg-config-flags=--static --extra-cflags=-I/root/ffmpeg_build/include --extra-ldflags=-L/root/ffmpeg_build/lib --bindir=/root/bin --enable-gpl --enable-libass --enable-libfdk-aac --enable-libfreetype --enable-libmp3lame --enable-libopus --enable-libtheora --enable-libvorbis --enable-libx264 --enable-libx265 --enable-nonfree
  libavutil      55. 35.100 / 55. 35.100
  libavcodec     57. 65.100 / 57. 65.100
  libavformat    57. 57.100 / 57. 57.100
  libavdevice    57.  2.100 / 57.  2.100
  libavfilter     6. 66.100 /  6. 66.100
  libswscale      4.  3.100 /  4.  3.100
  libswresample   2.  4.100 /  2.  4.100
  libpostproc    54.  2.100 / 54.  2.100
Input #0, matroska,webm, from '/media/yubikiri/bot/queue/3AnimePahe_Detective_Conan_-_037_720p_Fansub.mkv':
  Metadata:
    title           : 3|Text||0|0
    ENCODER         : Lavf57.57.100
  Duration: 00:24:26.05, start: 0.000000, bitrate: 911 kb/s
    Stream #0:0: Video: mpeg4 (Simple Profile), yuv420p, 640x480 [SAR 1:1 DAR 4:3], 23.98 fps, 23.98 tbr, 1k tbn, 23.98 tbc (default)
    Metadata:
      DURATION        : 00:24:26.050000000
    Stream #0:1: Audio: mp3, 48000 Hz, stereo, s16p, 128 kb/s (default)
    Metadata:
      DURATION        : 00:24:25.992000000
[libx264 @ 0x4108f20] using SAR=1/1
[libx264 @ 0x4108f20] using cpu capabilities: MMX2 SSE2Fast SSSE3 SSE4.2 AVX FMA3 AVX2 LZCNT BMI2
[libx264 @ 0x4108f20] profile High, level 3.1
[libx264 @ 0x4108f20] 264 - core 148 r2643 5c65704 - H.264/MPEG-4 AVC codec - Copyleft 2003-2015 - http://www.videolan.org/x264.html - options: cabac=1 ref=8 deblock=1:1:1 analyse=0x3:0x133 me=umh subme=7 psy=1 psy_rd=0.00:0.00 mixed_ref=1 me_range=8 chroma_me=1 trellis=0 8x8dct=1 cqm=0 deadzone=21,11 fast_pskip=1 chroma_qp_offset=0 threads=8 lookahead_threads=2 sliced_threads=0 nr=0 decimate=1 interlaced=0 bluray_compat=0 constrained_intra=0 bframes=3 b_pyramid=2 b_adapt=2 b_bias=0 direct=1 weightb=1 open_gop=0 weightp=2 keyint=240 keyint_min=24 scenecut=40 intra_refresh=0 rc_lookahead=60 rc=crf mbtree=1 crf=27.0 qcomp=0.60 qpmin=0 qpmax=69 qpstep=4 ip_ratio=1.40 aq=1:1.00
[libfdk_aac @ 0x410a2a0] Note, the VBR setting is unsupported and only works with some parameter combinations
Output #0, mp4, to '/media/yubikiri/bot/queue/3AnimePahe_Detective_Conan_-_037_720p_Fansub.mkv_encoded.mp4':
  Metadata:
    encoder         : Lavf57.57.100
    Stream #0:0: Video: h264 (libx264) ([33][0][0][0] / 0x0021), yuv420p, 640x480 [SAR 1:1 DAR 4:3], q=-1--1, 23.98 fps, 11988 tbn, 23.98 tbc (default)
    Metadata:
      encoder         : Lavc57.65.100 libx264
    Side data:
      cpb: bitrate max/min/avg: 0/0/0 buffer size: 0 vbv_delay: -1
    Stream #0:1: Audio: aac (libfdk_aac) (HE-AACv2) ([64][0][0][0] / 0x0040), 48000 Hz, stereo, s16, 48 kb/s (default)
    Metadata:
      encoder         : Lavc57.65.100 libfdk_aac
Stream mapping:
  Stream #0:0 -> #0:0 (mpeg4 (native) -> h264 (libx264))
  Stream #0:1 -> #0:1 (mp3 (native) -> aac (libfdk_aac))
Press [q] to stop, [?] for help
frame=  114 fps=0.0 q=32.0 size=     117kB time=00:00:04.92 bitrate= 194.3kbits/s dup=1 drop=0 speed=9.68x    frame=  180 fps=178 q=32.0 size=     322kB time=00:00:07.65 bitrate= 344.0kbits/s dup=1 drop=0 speed=7.58x    frame=  289 fps=190 q=32.0 size=     486kB time=00:00:12.22 bitrate= 325.4kbits/s dup=1 drop=0 speed=8.05x    frame=  393 fps=195 q=32.0 size=     655kB time=00:00:16.57 bitrate= 323.9kbits/s dup=1 drop=0 speed=8.21x    frame=  480 fps=190 q=32.0 size=     836kB time=00:00:20.20 bitrate= 339.1kbits/s dup=1 drop=0 speed=   8x    frame=  578 fps=191 q=32.0 size=     992kB time=00:00:24.25 bitrate= 335.1kbits/s dup=1 drop=0 speed=8.02x    frame=  687 fps=195 q=32.0 size=    1096kB time=00:00:28.82 bitrate= 311.4kbits/s dup=1 drop=0 speed=8.18x    frame=  765 fps=189 q=32.0 size=    1275kB time=00:00:32.06 bitrate= 325.8kbits/s dup=1 drop=0 speed=7.94x    frame=  885 fps=195 q=32.0 size=    1465kB time=00:00:37.09 bitrate= 323.6kbits/s dup=1 drop=0 speed=8.16x    frame=  976 fps=193 q=32.0 size=    1612kB time=00:00:40.85 bitrate= 323.2kbits/s dup=1 drop=0 speed=8.09x    frame= 1056 fps=190 q=32.0 size=    1792kB time=00:00:44.18 bitrate= 332.2kbits/s dup=1 drop=0 speed=7.96x    frame= 1181 fps=195 q=32.0 size=    1947kB time=00:00:49.43 bitrate= 322.7kbits/s dup=1 drop=0 speed=8.17x    frame= 1274 fps=194 q=32.0 size=    2119kB time=00:00:53.31 bitrate= 325.7kbits/s dup=1 drop=0 speed= 8.1x    frame= 1344 fps=189 q=32.0 size=    2303kB time=00:00:56.21 bitrate= 335.6kbits/s dup=1 drop=0 speed=7.92x    frame= 1420 fps=187 q=32.0 size=    2458kB time=00:00:59.37 bitrate= 339.2kbits/s dup=1 drop=0 speed=7.81x    frame= 1506 fps=186 q=32.0 size=    2624kB time=00:01:02.95 bitrate= 341.5kbits/s dup=1 drop=0 speed=7.77x    frame= 1599 fps=186 q=32.0 size=    2749kB time=00:01:06.83 bitrate= 336.9kbits/s dup=1 drop=0 speed=7.77x    frame= 1664 fps=183 q=32.0 size=    2942kB time=00:01:09.56 bitrate= 346.5kbits/s dup=1 drop=0 speed=7.64x    frame= 1744 fps=182 q=32.0 size=    3070kB time=00:01:12.89 bitrate= 345.0kbits/s dup=1 drop=0 speed=7.59x    frame= 1813 fps=179 q=32.0 size=    3222kB time=00:01:15.75 bitrate= 348.4kbits/s dup=1 drop=0 speed= 7.5x    frame= 1888 fps=178 q=32.0 size=    3387kB time=00:01:18.91 bitrate= 351.6kbits/s dup=1 drop=0 speed=7.44x    frame= 1956 fps=176 q=32.0 size=    3512kB time=00:01:21.72 bitrate= 352.0kbits/s dup=1 drop=0 speed=7.34x    frame= 2023 fps=174 q=32.0 size=    3646kB time=00:01:24.54 bitrate= 353.2kbits/s dup=1 drop=0 speed=7.26x    frame= 2104 fps=173 q=32.0 size=    3769kB time=00:01:27.91 bitrate= 351.2kbits/s dup=1 drop=0 speed=7.24x    frame= 2188 fps=173 q=32.0 size=    3892kB time=00:01:31.41 bitrate= 348.8kbits/s dup=1 drop=0 speed=7.22x    frame= 2373 fps=180 q=32.0 size=    3991kB time=00:01:39.13 bitrate= 329.8kbits/s dup=1 drop=0 speed=7.54x    frame= 2487 fps=182 q=32.0 size=    4176kB time=00:01:43.91 bitrate= 329.2kbits/s dup=1 drop=0 speed=7.61x    frame= 2594 fps=183 q=32.0 size=    4291kB time=00:01:48.35 bitrate= 324.4kbits/s dup=1 drop=0 speed=7.65x    frame= 2694 fps=184 q=32.0 size=    4408kB time=00:01:52.49 bitrate= 321.0kbits/s dup=1 drop=0 speed=7.67x    frame= 2836 fps=187 q=32.0 size=    4538kB time=00:01:58.42 bitrate= 313.9kbits/s dup=1 drop=0 speed=7.81x    frame= 2992 fps=191 q=32.0 size=    4641kB time=00:02:04.95 bitrate= 304.2kbits/s dup=1 drop=0 speed=7.97x    frame= 3133 fps=194 q=32.0 size=    4780kB time=00:02:10.83 bitrate= 299.3kbits/s dup=1 drop=0 speed=8.09x    frame= 3256 fps=195 q=32.0 size=    4884kB time=00:02:15.95 bitrate= 294.3kbits/s dup=1 drop=0 speed=8.15x    frame= 3383 fps=197 q=32.0 size=    5021kB time=00:02:21.24 bitrate= 291.2kbits/s dup=1 drop=0 speed=8.22x    frame= 3446 fps=192 q=32.0 size=    5058kB time=00:02:23.89 bitrate= 288.0kbits/s dup=1 drop=0 speed=8.03x    frame= 3570 fps=194 q=32.0 size=    5218kB time=00:02:29.05 bitrate= 286.8kbits/s dup=1 drop=0 speed=8.09x    frame= 3706 fps=196 q=32.0 size=    5339kB time=00:02:34.73 bitrate= 282.7kbits/s dup=1 drop=0 speed=8.18x    frame= 3769 fps=194 q=32.0 size=    5418kB time=00:02:37.37 bitrate= 282.0kbits/s dup=1 drop=0 speed= 8.1x    frame= 3857 fps=194 q=32.0 size=    5536kB time=00:02:41.04 bitrate= 281.6kbits/s dup=1 drop=0 speed=8.08x    frame= 3942 fps=193 q=32.0 size=    5629kB time=00:02:44.58 bitrate= 280.2kbits/s dup=1 drop=0 speed=8.06x    frame= 4002 fps=191 q=32.0 size=    5709kB time=00:02:47.10 bitrate= 279.9kbits/s dup=1 drop=0 speed=7.98x    frame= 4063 fps=189 q=32.0 size=    5797kB time=00:02:49.62 bitrate= 280.0kbits/s dup=1 drop=0 speed=7.91x    frame= 4148 fps=189 q=32.0 size=    5899kB time=00:02:53.16 bitrate= 279.0kbits/s dup=1 drop=0 speed=7.89x    frame= 4231 fps=188 q=32.0 size=    6008kB time=00:02:56.61 bitrate= 278.6kbits/s dup=1 drop=0 speed=7.86x    frame= 4309 fps=188 q=32.0 size=    6129kB time=00:02:59.86 bitrate= 279.1kbits/s dup=1 drop=0 speed=7.83x    frame= 4376 fps=186 q=32.0 size=    6209kB time=00:03:02.67 bitrate= 278.5kbits/s dup=1 drop=0 speed=7.78x    frame= 4446 fps=185 q=32.0 size=    6319kB time=00:03:05.57 bitrate= 279.0kbits/s dup=1 drop=0 speed=7.73x    frame= 4527 fps=185 q=32.0 size=    6424kB time=00:03:08.99 bitrate= 278.4kbits/s dup=1 drop=0 speed=7.71x    frame= 4625 fps=185 q=32.0 size=    6489kB time=00:03:13.04 bitrate= 275.3kbits/s dup=1 drop=0 speed=7.72x    frame= 4707 fps=185 q=32.0 size=    6618kB time=00:03:16.50 bitrate= 275.9kbits/s dup=1 drop=0 speed= 7.7x    frame= 4791 fps=184 q=32.0 size=    6686kB time=00:03:20.00 bitrate= 273.9kbits/s dup=1 drop=0 speed=7.69x    frame= 4879 fps=184 q=32.0 size=    6777kB time=00:03:23.67 bitrate= 272.6kbits/s dup=1 drop=0 speed=7.68x    frame= 4973 fps=184 q=32.0 size=    6826kB time=00:03:27.59 bitrate= 269.3kbits/s dup=1 drop=0 speed=7.68x    frame= 5011 fps=182 q=32.0 size=    6866kB time=00:03:29.17 bitrate= 268.9kbits/s dup=1 drop=0 speed=7.59x    frame= 5088 fps=181 q=32.0 size=    6957kB time=00:03:32.37 bitrate= 268.3kbits/s dup=1 drop=0 speed=7.56x    frame= 5162 fps=181 q=32.0 size=    7018kB time=00:03:35.48 bitrate= 266.8kbits/s dup=1 drop=0 speed=7.54x    frame= 5214 fps=179 q=32.0 size=    7084kB time=00:03:37.62 bitrate= 266.7kbits/s dup=1 drop=0 speed=7.48x    frame= 5277 fps=178 q=29.0 size=    7143kB time=00:03:40.26 bitrate= 265.7kbits/s dup=1 drop=0 speed=7.45x    frame= 5345 fps=178 q=32.0 size=    7223kB time=00:03:43.08 bitrate= 265.3kbits/s dup=1 drop=0 speed=7.41x    frame= 5420 fps=177 q=32.0 size=    7307kB time=00:03:46.19 bitrate= 264.6kbits/s dup=1 drop=0 speed=7.39x    frame= 5476 fps=176 q=32.0 size=    7405kB time=00:03:48.54 bitrate= 265.4kbits/s dup=1 drop=0 speed=7.35x    frame= 5546 fps=176 q=32.0 size=    7494kB time=00:03:51.48 bitrate= 265.2kbits/s dup=1 drop=0 speed=7.33x    frame= 5613 fps=175 q=32.0 size=    7551kB time=00:03:54.26 bitrate= 264.0kbits/s dup=1 drop=0 speed=7.29x    frame= 5666 fps=174 q=32.0 size=    7605kB time=00:03:56.48 bitrate= 263.5kbits/s dup=1 drop=0 speed=7.24x    frame= 5747 fps=173 q=32.0 size=    7681kB time=00:03:59.85 bitrate= 262.3kbits/s dup=1 drop=0 speed=7.23x    frame= 5821 fps=173 q=32.0 size=    7775kB time=00:04:02.96 bitrate= 262.1kbits/s dup=1 drop=0 speed=7.22x    frame= 5892 fps=172 q=32.0 size=    7865kB time=00:04:05.91 bitrate= 262.0kbits/s dup=1 drop=0 speed= 7.2x    frame= 5953 fps=172 q=32.0 size=    7963kB time=00:04:08.42 bitrate= 262.6kbits/s dup=1 drop=0 speed=7.17x    frame= 6029 fps=171 q=32.0 size=    8040kB time=00:04:11.62 bitrate= 261.7kbits/s dup=1 drop=0 speed=7.15x    frame= 6109 fps=171 q=32.0 size=    8143kB time=00:04:14.95 bitrate= 261.7kbits/s dup=1 drop=0 speed=7.14x    frame= 6193 fps=171 q=32.0 size=    8224kB time=00:04:18.45 bitrate= 260.7kbits/s dup=1 drop=0 speed=7.14x    frame= 6270 fps=171 q=32.0 size=    8284kB time=00:04:21.65 bitrate= 259.3kbits/s dup=1 drop=0 speed=7.13x    frame= 6330 fps=170 q=32.0 size=    8348kB time=00:04:24.17 bitrate= 258.9kbits/s dup=1 drop=0 speed= 7.1x    frame= 6385 fps=169 q=32.0 size=    8419kB time=00:04:26.47 bitrate= 258.8kbits/s dup=1 drop=0 speed=7.06x    frame= 6437 fps=168 q=32.0 size=    8497kB time=00:04:28.65 bitrate= 259.1kbits/s dup=1 drop=0 speed=7.03x    frame= 6497 fps=168 q=32.0 size=    8582kB time=00:04:31.16 bitrate= 259.3kbits/s dup=1 drop=0 speed=   7x    frame= 6608 fps=168 q=32.0 size=    8697kB time=00:04:35.73 bitrate= 258.4kbits/s dup=1 drop=0 speed=7.03x    frame= 6725 fps=169 q=32.0 size=    8836kB time=00:04:40.64 bitrate= 257.9kbits/s dup=1 drop=0 speed=7.06x    frame= 6843 fps=170 q=32.0 size=    9024kB time=00:04:45.59 bitrate= 258.9kbits/s dup=1 drop=0 speed= 7.1x    frame= 6981 fps=171 q=32.0 size=    9188kB time=00:04:51.35 bitrate= 258.3kbits/s dup=1 drop=0 speed=7.15x    frame= 7087 fps=172 q=32.0 size=    9338kB time=00:04:55.74 bitrate= 258.7kbits/s dup=1 drop=0 speed=7.17x    frame= 7155 fps=171 q=32.0 size=    9436kB time=00:04:58.60 bitrate= 258.9kbits/s dup=1 drop=0 speed=7.15x    frame= 7275 fps=171 q=32.0 size=    9567kB time=00:05:03.59 bitrate= 258.2kbits/s dup=1 drop=0 speed=7.15x    frame= 7405 fps=172 q=32.0 size=    9723kB time=00:05:09.01 bitrate= 257.8kbits/s dup=1 drop=0 speed=7.19x    frame= 7528 fps=173 q=32.0 size=    9860kB time=00:05:14.13 bitrate= 257.1kbits/s dup=1 drop=0 speed=7.23x    frame= 7626 fps=173 q=32.0 size=   10013kB time=00:05:18.23 bitrate= 257.8kbits/s dup=1 drop=0 speed=7.24x    frame= 7753 fps=174 q=32.0 size=   10163kB time=00:05:23.52 bitrate= 257.3kbits/s dup=1 drop=0 speed=7.27x    frame= 7902 fps=176 q=32.0 size=   10311kB time=00:05:29.75 bitrate= 256.1kbits/s dup=1 drop=0 speed=7.33x    frame= 8058 fps=177 q=32.0 size=   10457kB time=00:05:36.23 bitrate= 254.8kbits/s dup=1 drop=0 speed=7.39x    frame= 8195 fps=178 q=32.0 size=   10572kB time=00:05:41.95 bitrate= 253.3kbits/s dup=1 drop=0 speed=7.44x    frame= 8357 fps=180 q=32.0 size=   10750kB time=00:05:48.69 bitrate= 252.6kbits/s dup=1 drop=0 speed= 7.5x    frame= 8504 fps=181 q=32.0 size=   10869kB time=00:05:54.83 bitrate= 250.9kbits/s dup=1 drop=0 speed=7.55x    frame= 8592 fps=181 q=32.0 size=   10966kB time=00:05:58.50 bitrate= 250.6kbits/s dup=1 drop=0 speed=7.55x    frame= 8674 fps=181 q=32.0 size=   11078kB time=00:06:01.96 bitrate= 250.7kbits/s dup=1 drop=0 speed=7.54x    frame= 8767 fps=181 q=32.0 size=   11308kB time=00:06:05.80 bitrate= 253.2kbits/s dup=1 drop=0 speed=7.54x    frame= 8871 fps=181 q=32.0 size=   11430kB time=00:06:10.15 bitrate= 253.0kbits/s dup=1 drop=0 speed=7.55x    frame= 8963 fps=181 q=32.0 size=   11587kB time=00:06:13.99 bitrate= 253.8kbits/s dup=1 drop=0 speed=7.55x    frame= 9065 fps=181 q=32.0 size=   11731kB time=00:06:18.21 bitrate= 254.1kbits/s dup=1 drop=0 speed=7.56x    frame= 9169 fps=181 q=32.0 size=   11853kB time=00:06:22.57 bitrate= 253.8kbits/s dup=1 drop=0 speed=7.57x    frame= 9375 fps=184 q=32.0 size=   11976kB time=00:06:31.14 bitrate= 250.8kbits/s dup=1 drop=0 speed=7.66x    frame= 9494 fps=184 q=32.0 size=   12101kB time=00:06:36.13 bitrate= 250.2kbits/s dup=1 drop=0 speed=7.68x    frame= 9605 fps=184 q=32.0 size=   12199kB time=00:06:40.79 bitrate= 249.3kbits/s dup=1 drop=0 speed= 7.7x    frame= 9721 fps=185 q=32.0 size=   12339kB time=00:06:45.61 bitrate= 249.2kbits/s dup=1 drop=0 speed=7.71x    frame= 9820 fps=185 q=32.0 size=   12493kB time=00:06:49.70 bitrate= 249.8kbits/s dup=1 drop=0 speed=7.72x    frame= 9903 fps=185 q=32.0 size=   12613kB time=00:06:53.20 bitrate= 250.1kbits/s dup=1 drop=0 speed=7.71x    frame=10020 fps=185 q=32.0 size=   12794kB time=00:06:58.07 bitrate= 250.7kbits/s dup=1 drop=0 speed=7.73x    frame=10142 fps=186 q=32.0 size=   12933kB time=00:07:03.14 bitrate= 250.4kbits/s dup=1 drop=0 speed=7.75x    frame=10264 fps=186 q=32.0 size=   13061kB time=00:07:08.26 bitrate= 249.8kbits/s dup=1 drop=0 speed=7.77x    frame=10337 fps=186 q=32.0 size=   13204kB time=00:07:11.29 bitrate= 250.8kbits/s dup=1 drop=0 speed=7.75x    frame=10433 fps=186 q=32.0 size=   13363kB time=00:07:15.30 bitrate= 251.5kbits/s dup=1 drop=0 speed=7.76x    frame=10534 fps=186 q=32.0 size=   13470kB time=00:07:19.53 bitrate= 251.0kbits/s dup=1 drop=0 speed=7.76x    frame=10623 fps=186 q=32.0 size=   13598kB time=00:07:23.24 bitrate= 251.3kbits/s dup=1 drop=0 speed=7.76x    frame=10732 fps=186 q=32.0 size=   13682kB time=00:07:27.76 bitrate= 250.3kbits/s dup=1 drop=0 speed=7.77x    frame=10869 fps=187 q=32.0 size=   13844kB time=00:07:33.48 bitrate= 250.1kbits/s dup=1 drop=0 speed= 7.8x    frame=10988 fps=187 q=32.0 size=   13966kB time=00:07:38.43 bitrate= 249.6kbits/s dup=1 drop=0 speed=7.82x    frame=11084 fps=187 q=32.0 size=   14088kB time=00:07:42.44 bitrate= 249.6kbits/s dup=1 drop=0 speed=7.82x    frame=11184 fps=187 q=32.0 size=   14160kB time=00:07:46.62 bitrate= 248.6kbits/s dup=1 drop=0 speed=7.82x    frame=11285 fps=188 q=32.0 size=   14231kB time=00:07:50.84 bitrate= 247.6kbits/s dup=1 drop=0 speed=7.82x    frame=11374 fps=187 q=32.0 size=   14337kB time=00:07:54.56 bitrate= 247.5kbits/s dup=1 drop=0 speed=7.82x    frame=11466 fps=187 q=32.0 size=   14433kB time=00:07:58.40 bitrate= 247.2kbits/s dup=1 drop=0 speed=7.82x    frame=11564 fps=187 q=32.0 size=   14544kB time=00:08:02.45 bitrate= 247.0kbits/s dup=1 drop=0 speed=7.82x    frame=11652 fps=187 q=32.0 size=   14624kB time=00:08:06.12 bitrate= 246.4kbits/s dup=1 drop=0 speed=7.82x    frame=11705 fps=187 q=32.0 size=   14699kB time=00:08:08.34 bitrate= 246.6kbits/s dup=1 drop=0 speed=7.79x    frame=11733 fps=186 q=32.0 size=   14801kB time=00:08:09.53 bitrate= 247.7kbits/s dup=1 drop=0 speed=7.74x    frame=11794 fps=185 q=32.0 size=   14896kB time=00:08:12.05 bitrate= 248.0kbits/s dup=1 drop=0 speed=7.72x    frame=11869 fps=185 q=32.0 size=   14995kB time=00:08:15.21 bitrate= 248.0kbits/s dup=1 drop=0 speed=7.71x    frame=11961 fps=185 q=32.0 size=   15070kB time=00:08:19.05 bitrate= 247.4kbits/s dup=1 drop=0 speed= 7.7x    frame=12044 fps=184 q=32.0 size=   15147kB time=00:08:22.46 bitrate= 246.9kbits/s dup=1 drop=0 speed= 7.7x    frame=12145 fps=185 q=32.0 size=   15245kB time=00:08:26.73 bitrate= 246.5kbits/s dup=1 drop=0 speed= 7.7x    frame=12258 fps=185 q=32.0 size=   15335kB time=00:08:31.42 bitrate= 245.6kbits/s dup=1 drop=0 speed=7.72x    frame=12362 fps=185 q=32.0 size=   15432kB time=00:08:35.77 bitrate= 245.1kbits/s dup=1 drop=0 speed=7.72x    frame=12449 fps=185 q=32.0 size=   15545kB time=00:08:39.36 bitrate= 245.2kbits/s dup=1 drop=0 speed=7.72x    frame=12500 fps=184 q=32.0 size=   15614kB time=00:08:41.49 bitrate= 245.3kbits/s dup=1 drop=0 speed=7.69x    frame=12554 fps=184 q=32.0 size=   15682kB time=00:08:43.75 bitrate= 245.3kbits/s dup=1 drop=0 speed=7.67x    frame=12597 fps=183 q=32.0 size=   15745kB time=00:08:45.54 bitrate= 245.4kbits/s dup=1 drop=0 speed=7.64x    frame=12654 fps=183 q=32.0 size=   15803kB time=00:08:47.93 bitrate= 245.2kbits/s dup=1 drop=0 speed=7.62x    frame=12734 fps=182 q=32.0 size=   15874kB time=00:08:51.26 bitrate= 244.8kbits/s dup=1 drop=0 speed=7.61x    frame=12780 fps=182 q=32.0 size=   15942kB time=00:08:53.18 bitrate= 244.9kbits/s dup=1 drop=0 speed=7.58x    frame=12808 fps=181 q=32.0 size=   16009kB time=00:08:54.37 bitrate= 245.4kbits/s dup=1 drop=0 speed=7.54x    frame=12839 fps=180 q=32.0 size=   16080kB time=00:08:55.65 bitrate= 245.9kbits/s dup=1 drop=0 speed=7.51x    frame=12867 fps=179 q=32.0 size=   16151kB time=00:08:56.81 bitrate= 246.5kbits/s dup=1 drop=0 speed=7.46x    frame=12900 fps=178 q=32.0 size=   16233kB time=00:08:58.21 bitrate= 247.1kbits/s dup=1 drop=0 speed=7.42x    frame=12934 fps=177 q=29.0 size=   16310kB time=00:08:59.62 bitrate= 247.6kbits/s dup=1 drop=0 speed=7.39x    frame=13005 fps=177 q=32.0 size=   16416kB time=00:09:02.57 bitrate= 247.9kbits/s dup=1 drop=0 speed=7.38x    frame=13078 fps=177 q=32.0 size=   16484kB time=00:09:05.60 bitrate= 247.5kbits/s dup=1 drop=0 speed=7.37x    frame=13147 fps=176 q=32.0 size=   16560kB time=00:09:08.50 bitrate= 247.3kbits/s dup=1 drop=0 speed=7.36x    frame=13189 fps=176 q=32.0 size=   16636kB time=00:09:10.25 bitrate= 247.7kbits/s dup=1 drop=0 speed=7.33x    frame=13288 fps=176 q=32.0 size=   16695kB time=00:09:14.39 bitrate= 246.7kbits/s dup=1 drop=0 speed=7.34x    frame=13384 fps=176 q=32.0 size=   16740kB time=00:09:18.40 bitrate= 245.6kbits/s dup=1 drop=0 speed=7.34x    frame=13433 fps=175 q=32.0 size=   16819kB time=00:09:20.40 bitrate= 245.9kbits/s dup=1 drop=0 speed=7.32x    frame=13486 fps=175 q=32.0 size=   16923kB time=00:09:22.62 bitrate= 246.4kbits/s dup=1 drop=0 speed=7.29x    frame=13574 fps=175 q=32.0 size=   16984kB time=00:09:26.29 bitrate= 245.7kbits/s dup=1 drop=0 speed=7.29x    frame=13652 fps=174 q=32.0 size=   17075kB time=00:09:29.57 bitrate= 245.6kbits/s dup=1 drop=0 speed=7.28x    frame=13732 fps=174 q=32.0 size=   17139kB time=00:09:32.90 bitrate= 245.1kbits/s dup=1 drop=0 speed=7.27x    frame=13806 fps=174 q=32.0 size=   17194kB time=00:09:35.97 bitrate= 244.5kbits/s dup=1 drop=0 speed=7.27x    frame=13869 fps=174 q=32.0 size=   17258kB time=00:09:38.62 bitrate= 244.3kbits/s dup=1 drop=0 speed=7.25x    frame=13951 fps=174 q=32.0 size=   17321kB time=00:09:42.03 bitrate= 243.8kbits/s dup=1 drop=0 speed=7.24x    frame=14030 fps=174 q=32.0 size=   17391kB time=00:09:45.32 bitrate= 243.4kbits/s dup=1 drop=0 speed=7.24x    frame=14115 fps=173 q=32.0 size=   17492kB time=00:09:48.86 bitrate= 243.3kbits/s dup=1 drop=0 speed=7.24x    frame=14201 fps=173 q=32.0 size=   17582kB time=00:09:52.44 bitrate= 243.1kbits/s dup=1 drop=0 speed=7.24x    frame=14296 fps=174 q=32.0 size=   17661kB time=00:09:56.41 bitrate= 242.6kbits/s dup=1 drop=0 speed=7.24x    frame=14399 fps=174 q=32.0 size=   17737kB time=00:10:00.72 bitrate= 241.9kbits/s dup=1 drop=0 speed=7.25x    frame=14566 fps=175 q=32.0 size=   17858kB time=00:10:07.68 bitrate= 240.7kbits/s dup=1 drop=0 speed=7.29x    frame=14733 fps=176 q=32.0 size=   17996kB time=00:10:14.63 bitrate= 239.8kbits/s dup=1 drop=0 speed=7.32x    frame=14906 fps=177 q=32.0 size=   18151kB time=00:10:21.84 bitrate= 239.1kbits/s dup=1 drop=0 speed=7.37x    frame=15029 fps=177 q=32.0 size=   18266kB time=00:10:27.00 bitrate= 238.6kbits/s dup=1 drop=0 speed=7.38x    frame=15180 fps=178 q=32.0 size=   18410kB time=00:10:33.28 bitrate= 238.2kbits/s dup=1 drop=0 speed=7.41x    frame=15332 fps=178 q=32.0 size=   18506kB time=00:10:39.59 bitrate= 237.0kbits/s dup=1 drop=0 speed=7.44x    frame=15483 fps=179 q=32.0 size=   18620kB time=00:10:45.95 bitrate= 236.1kbits/s dup=1 drop=0 speed=7.47x    frame=15627 fps=180 q=32.0 size=   18750kB time=00:10:51.92 bitrate= 235.6kbits/s dup=1 drop=0 speed= 7.5x    frame=15786 fps=181 q=32.0 size=   18880kB time=00:10:58.53 bitrate= 234.9kbits/s dup=1 drop=0 speed=7.53x    frame=15929 fps=181 q=32.0 size=   19025kB time=00:11:04.55 bitrate= 234.5kbits/s dup=1 drop=0 speed=7.56x    frame=16085 fps=182 q=32.0 size=   19127kB time=00:11:11.04 bitrate= 233.5kbits/s dup=1 drop=0 speed=7.59x    frame=16246 fps=183 q=32.0 size=   19281kB time=00:11:17.73 bitrate= 233.1kbits/s dup=1 drop=0 speed=7.62x    frame=16419 fps=183 q=32.0 size=   19395kB time=00:11:24.95 bitrate= 232.0kbits/s dup=1 drop=0 speed=7.65x    frame=16570 fps=184 q=32.0 size=   19543kB time=00:11:31.26 bitrate= 231.6kbits/s dup=1 drop=0 speed=7.68x    frame=16674 fps=184 q=32.0 size=   19646kB time=00:11:35.61 bitrate= 231.4kbits/s dup=1 drop=0 speed=7.69x    frame=16776 fps=184 q=32.0 size=   19745kB time=00:11:39.84 bitrate= 231.1kbits/s dup=1 drop=0 speed=7.69x    frame=16919 fps=185 q=32.0 size=   19883kB time=00:11:45.81 bitrate= 230.8kbits/s dup=1 drop=0 speed=7.71x    frame=17083 fps=186 q=32.0 size=   20020kB time=00:11:52.64 bitrate= 230.1kbits/s dup=1 drop=0 speed=7.75x    frame=17250 fps=186 q=32.0 size=   20176kB time=00:11:59.63 bitrate= 229.7kbits/s dup=1 drop=0 speed=7.78x    frame=17372 fps=187 q=32.0 size=   20292kB time=00:12:04.71 bitrate= 229.4kbits/s dup=1 drop=0 speed=7.79x    frame=17476 fps=187 q=32.0 size=   20401kB time=00:12:09.02 bitrate= 229.2kbits/s dup=1 drop=0 speed= 7.8x    frame=17583 fps=187 q=32.0 size=   20546kB time=00:12:13.50 bitrate= 229.5kbits/s dup=1 drop=0 speed= 7.8x    frame=17671 fps=187 q=32.0 size=   20660kB time=00:12:17.17 bitrate= 229.6kbits/s dup=1 drop=0 speed= 7.8x    frame=17747 fps=187 q=32.0 size=   20811kB time=00:12:20.33 bitrate= 230.3kbits/s dup=1 drop=0 speed=7.79x    frame=17824 fps=187 q=32.0 size=   20912kB time=00:12:23.57 bitrate= 230.4kbits/s dup=1 drop=0 speed=7.78x    frame=17910 fps=186 q=32.0 size=   21005kB time=00:12:27.15 bitrate= 230.3kbits/s dup=1 drop=0 speed=7.78x    frame=18010 fps=187 q=32.0 size=   21145kB time=00:12:31.33 bitrate= 230.5kbits/s dup=1 drop=0 speed=7.78x    frame=18161 fps=187 q=32.0 size=   21251kB time=00:12:37.61 bitrate= 229.8kbits/s dup=1 drop=0 speed=7.81x    frame=18265 fps=187 q=32.0 size=   21361kB time=00:12:41.96 bitrate= 229.7kbits/s dup=1 drop=0 speed= 7.8x    frame=18394 fps=187 q=32.0 size=   21495kB time=00:12:47.33 bitrate= 229.5kbits/s dup=1 drop=0 speed=7.82x    frame=18457 fps=187 q=32.0 size=   21625kB time=00:12:49.98 bitrate= 230.1kbits/s dup=1 drop=0 speed= 7.8x    frame=18561 fps=187 q=32.0 size=   21775kB time=00:12:54.29 bitrate= 230.4kbits/s dup=1 drop=0 speed=7.81x    frame=18640 fps=187 q=32.0 size=   21888kB time=00:12:57.57 bitrate= 230.6kbits/s dup=1 drop=0 speed= 7.8x    frame=18777 fps=187 q=32.0 size=   22025kB time=00:13:03.33 bitrate= 230.3kbits/s dup=1 drop=0 speed=7.82x    frame=18857 fps=187 q=32.0 size=   22142kB time=00:13:06.66 bitrate= 230.6kbits/s dup=1 drop=0 speed=7.81x    frame=18912 fps=187 q=32.0 size=   22312kB time=00:13:08.97 bitrate= 231.7kbits/s dup=1 drop=0 speed= 7.8x    frame=19019 fps=187 q=32.0 size=   22417kB time=00:13:13.40 bitrate= 231.5kbits/s dup=1 drop=0 speed= 7.8x    frame=19129 fps=187 q=32.0 size=   22532kB time=00:13:17.97 bitrate= 231.3kbits/s dup=1 drop=0 speed=7.81x    frame=19223 fps=187 q=32.0 size=   22669kB time=00:13:21.89 bitrate= 231.6kbits/s dup=1 drop=0 speed=7.81x    frame=19308 fps=187 q=32.0 size=   22776kB time=00:13:25.48 bitrate= 231.6kbits/s dup=1 drop=0 speed=7.81x    frame=19375 fps=187 q=32.0 size=   22847kB time=00:13:28.25 bitrate= 231.6kbits/s dup=1 drop=0 speed= 7.8x    frame=19450 fps=187 q=32.0 size=   22947kB time=00:13:31.37 bitrate= 231.7kbits/s dup=1 drop=0 speed=7.79x    frame=19531 fps=187 q=32.0 size=   23013kB time=00:13:34.78 bitrate= 231.4kbits/s dup=1 drop=0 speed=7.78x    frame=19583 fps=186 q=32.0 size=   23103kB time=00:13:36.91 bitrate= 231.7kbits/s dup=1 drop=0 speed=7.76x    frame=19639 fps=186 q=32.0 size=   23171kB time=00:13:39.26 bitrate= 231.7kbits/s dup=1 drop=0 speed=7.75x    frame=19695 fps=185 q=32.0 size=   23248kB time=00:13:41.61 bitrate= 231.8kbits/s dup=1 drop=0 speed=7.73x    frame=19744 fps=185 q=32.0 size=   23314kB time=00:13:43.65 bitrate= 231.9kbits/s dup=1 drop=0 speed=7.72x    frame=19844 fps=185 q=32.0 size=   23424kB time=00:13:47.84 bitrate= 231.8kbits/s dup=1 drop=0 speed=7.72x    frame=19909 fps=185 q=32.0 size=   23502kB time=00:13:50.52 bitrate= 231.8kbits/s dup=1 drop=0 speed=7.71x    frame=19973 fps=184 q=32.0 size=   23585kB time=00:13:53.21 bitrate= 231.9kbits/s dup=1 drop=0 speed= 7.7x    frame=20041 fps=184 q=32.0 size=   23663kB time=00:13:56.03 bitrate= 231.9kbits/s dup=1 drop=0 speed=7.69x    frame=20102 fps=184 q=32.0 size=   23766kB time=00:13:58.59 bitrate= 232.2kbits/s dup=1 drop=0 speed=7.67x    frame=20235 fps=184 q=32.0 size=   23848kB time=00:14:04.13 bitrate= 231.4kbits/s dup=1 drop=0 speed=7.69x    frame=20307 fps=184 q=32.0 size=   23941kB time=00:14:07.12 bitrate= 231.5kbits/s dup=1 drop=0 speed=7.68x    frame=20375 fps=184 q=32.0 size=   24022kB time=00:14:09.94 bitrate= 231.5kbits/s dup=1 drop=0 speed=7.67x    frame=20448 fps=184 q=32.0 size=   24116kB time=00:14:13.01 bitrate= 231.6kbits/s dup=1 drop=0 speed=7.66x    frame=20535 fps=184 q=32.0 size=   24231kB time=00:14:16.64 bitrate= 231.7kbits/s dup=1 drop=0 speed=7.66x    frame=20633 fps=184 q=32.0 size=   24316kB time=00:14:20.73 bitrate= 231.4kbits/s dup=1 drop=0 speed=7.66x    frame=20741 fps=184 q=32.0 size=   24373kB time=00:14:25.21 bitrate= 230.8kbits/s dup=1 drop=0 speed=7.66x    frame=20818 fps=184 q=32.0 size=   24438kB time=00:14:28.45 bitrate= 230.5kbits/s dup=1 drop=0 speed=7.66x    frame=20882 fps=183 q=32.0 size=   24525kB time=00:14:31.10 bitrate= 230.6kbits/s dup=1 drop=0 speed=7.65x    frame=20971 fps=183 q=32.0 size=   24617kB time=00:14:34.81 bitrate= 230.5kbits/s dup=1 drop=0 speed=7.65x    frame=21059 fps=183 q=32.0 size=   24678kB time=00:14:38.48 bitrate= 230.1kbits/s dup=1 drop=0 speed=7.65x    frame=21130 fps=183 q=32.0 size=   24768kB time=00:14:41.43 bitrate= 230.2kbits/s dup=1 drop=0 speed=7.64x    frame=21219 fps=183 q=32.0 size=   24834kB time=00:14:45.18 bitrate= 229.8kbits/s dup=1 drop=0 speed=7.64x    frame=21315 fps=183 q=32.0 size=   24908kB time=00:14:49.19 bitrate= 229.5kbits/s dup=1 drop=0 speed=7.64x    frame=21398 fps=183 q=32.0 size=   24992kB time=00:14:52.60 bitrate= 229.4kbits/s dup=1 drop=0 speed=7.63x    frame=21472 fps=183 q=32.0 size=   25056kB time=00:14:55.72 bitrate= 229.2kbits/s dup=1 drop=0 speed=7.63x    frame=21551 fps=183 q=32.0 size=   25148kB time=00:14:59.00 bitrate= 229.2kbits/s dup=1 drop=0 speed=7.62x    frame=21618 fps=183 q=32.0 size=   25222kB time=00:15:01.78 bitrate= 229.1kbits/s dup=1 drop=0 speed=7.62x    frame=21682 fps=182 q=32.0 size=   25263kB time=00:15:04.47 bitrate= 228.8kbits/s dup=1 drop=0 speed=7.61x    frame=21738 fps=182 q=32.0 size=   25391kB time=00:15:06.81 bitrate= 229.4kbits/s dup=1 drop=0 speed=7.59x    frame=21780 fps=182 q=32.0 size=   25453kB time=00:15:08.56 bitrate= 229.5kbits/s dup=1 drop=0 speed=7.58x    frame=21855 fps=181 q=32.0 size=   25553kB time=00:15:11.68 bitrate= 229.6kbits/s dup=1 drop=0 speed=7.57x    frame=21910 fps=181 q=32.0 size=   25632kB time=00:15:13.98 bitrate= 229.7kbits/s dup=1 drop=0 speed=7.56x    frame=21958 fps=181 q=32.0 size=   25690kB time=00:15:15.99 bitrate= 229.8kbits/s dup=1 drop=0 speed=7.54x    frame=21987 fps=180 q=32.0 size=   25756kB time=00:15:17.22 bitrate= 230.0kbits/s dup=1 drop=0 speed=7.52x    frame=22046 fps=180 q=32.0 size=   25831kB time=00:15:19.65 bitrate= 230.1kbits/s dup=1 drop=0 speed=7.51x    frame=22118 fps=180 q=32.0 size=   25943kB time=00:15:22.64 bitrate= 230.3kbits/s dup=1 drop=0 speed= 7.5x    frame=22245 fps=180 q=32.0 size=   26143kB time=00:15:27.97 bitrate= 230.8kbits/s dup=1 drop=0 speed=7.51x    frame=22371 fps=180 q=32.0 size=   26284kB time=00:15:33.22 bitrate= 230.7kbits/s dup=1 drop=0 speed=7.52x    frame=22490 fps=181 q=32.0 size=   26443kB time=00:15:38.17 bitrate= 230.9kbits/s dup=1 drop=0 speed=7.53x    frame=22620 fps=181 q=32.0 size=   26600kB time=00:15:43.59 bitrate= 230.9kbits/s dup=1 drop=0 speed=7.54x    frame=22719 fps=181 q=32.0 size=   26737kB time=00:15:47.73 bitrate= 231.1kbits/s dup=1 drop=0 speed=7.55x    frame=22792 fps=181 q=32.0 size=   26916kB time=00:15:50.76 bitrate= 231.9kbits/s dup=1 drop=0 speed=7.54x    frame=22868 fps=181 q=32.0 size=   27122kB time=00:15:53.96 bitrate= 232.9kbits/s dup=1 drop=0 speed=7.54x    frame=22952 fps=181 q=32.0 size=   27268kB time=00:15:57.46 bitrate= 233.3kbits/s dup=1 drop=0 speed=7.53x    frame=22985 fps=180 q=32.0 size=   27299kB time=00:15:58.82 bitrate= 233.2kbits/s dup=1 drop=0 speed=7.51x    frame=23069 fps=180 q=32.0 size=   27444kB time=00:16:02.32 bitrate= 233.6kbits/s dup=1 drop=0 speed=7.51x    frame=23162 fps=180 q=32.0 size=   27586kB time=00:16:06.20 bitrate= 233.9kbits/s dup=1 drop=0 speed=7.51x    frame=23258 fps=180 q=32.0 size=   27729kB time=00:16:10.21 bitrate= 234.1kbits/s dup=1 drop=0 speed=7.51x    frame=23324 fps=180 q=32.0 size=   27854kB time=00:16:12.95 bitrate= 234.5kbits/s dup=1 drop=0 speed=7.51x    frame=23369 fps=180 q=32.0 size=   28018kB time=00:16:14.82 bitrate= 235.4kbits/s dup=1 drop=0 speed=7.49x    frame=23414 fps=179 q=32.0 size=   28205kB time=00:16:16.74 bitrate= 236.6kbits/s dup=1 drop=0 speed=7.48x    frame=23499 fps=179 q=32.0 size=   28372kB time=00:16:20.24 bitrate= 237.1kbits/s dup=1 drop=0 speed=7.48x    frame=23568 fps=179 q=32.0 size=   28549kB time=00:16:23.14 bitrate= 237.9kbits/s dup=1 drop=0 speed=7.47x    frame=23647 fps=179 q=32.0 size=   28705kB time=00:16:26.43 bitrate= 238.4kbits/s dup=1 drop=0 speed=7.46x    frame=23697 fps=179 q=32.0 size=   28826kB time=00:16:28.52 bitrate= 238.9kbits/s dup=1 drop=0 speed=7.45x    frame=23742 fps=178 q=32.0 size=   29001kB time=00:16:30.40 bitrate= 239.9kbits/s dup=1 drop=0 speed=7.44x    frame=23811 fps=178 q=32.0 size=   29136kB time=00:16:33.30 bitrate= 240.3kbits/s dup=1 drop=0 speed=7.43x    frame=23935 fps=178 q=32.0 size=   29330kB time=00:16:38.46 bitrate= 240.6kbits/s dup=1 drop=0 speed=7.44x    frame=24023 fps=178 q=32.0 size=   29513kB time=00:16:42.13 bitrate= 241.3kbits/s dup=1 drop=0 speed=7.44x    frame=24068 fps=178 q=32.0 size=   29656kB time=00:16:44.01 bitrate= 242.0kbits/s dup=1 drop=0 speed=7.43x    frame=24128 fps=178 q=32.0 size=   29829kB time=00:16:46.48 bitrate= 242.8kbits/s dup=1 drop=0 speed=7.42x    frame=24173 fps=177 q=32.0 size=   29995kB time=00:16:48.36 bitrate= 243.7kbits/s dup=1 drop=0 speed= 7.4x    frame=24225 fps=177 q=32.0 size=   30143kB time=00:16:50.53 bitrate= 244.4kbits/s dup=1 drop=0 speed=7.39x    frame=24272 fps=177 q=32.0 size=   30276kB time=00:16:52.50 bitrate= 245.0kbits/s dup=1 drop=0 speed=7.38x    frame=24323 fps=177 q=32.0 size=   30425kB time=00:16:54.63 bitrate= 245.6kbits/s dup=1 drop=0 speed=7.37x    frame=24375 fps=176 q=32.0 size=   30607kB time=00:16:56.81 bitrate= 246.6kbits/s dup=1 drop=0 speed=7.36x    frame=24477 fps=176 q=32.0 size=   30745kB time=00:17:01.03 bitrate= 246.7kbits/s dup=1 drop=0 speed=7.36x    frame=24601 fps=177 q=32.0 size=   30837kB time=00:17:06.19 bitrate= 246.2kbits/s dup=1 drop=0 speed=7.37x    frame=24731 fps=177 q=32.0 size=   30972kB time=00:17:11.65 bitrate= 245.9kbits/s dup=1 drop=0 speed=7.38x    frame=24864 fps=177 q=32.0 size=   31079kB time=00:17:17.20 bitrate= 245.5kbits/s dup=1 drop=0 speed= 7.4x    frame=25006 fps=178 q=32.0 size=   31214kB time=00:17:23.09 bitrate= 245.1kbits/s dup=1 drop=0 speed=7.41x    frame=25086 fps=178 q=32.0 size=   31337kB time=00:17:26.46 bitrate= 245.3kbits/s dup=1 drop=0 speed=7.41x    frame=25198 fps=178 q=32.0 size=   31442kB time=00:17:31.11 bitrate= 245.0kbits/s dup=1 drop=0 speed=7.41x    frame=25302 fps=178 q=32.0 size=   31579kB time=00:17:35.46 bitrate= 245.1kbits/s dup=1 drop=0 speed=7.42x    frame=25399 fps=178 q=32.0 size=   31709kB time=00:17:39.52 bitrate= 245.2kbits/s dup=1 drop=0 speed=7.42x    frame=25510 fps=178 q=32.0 size=   31834kB time=00:17:44.12 bitrate= 245.1kbits/s dup=1 drop=0 speed=7.43x    frame=25583 fps=178 q=32.0 size=   31912kB time=00:17:47.20 bitrate= 245.0kbits/s dup=1 drop=0 speed=7.42x    frame=25639 fps=178 q=32.0 size=   31966kB time=00:17:49.50 bitrate= 244.8kbits/s dup=1 drop=0 speed=7.41x    frame=25706 fps=177 q=32.0 size=   32050kB time=00:17:52.32 bitrate= 244.8kbits/s dup=1 drop=0 speed= 7.4x    frame=25775 fps=177 q=32.0 size=   32140kB time=00:17:55.17 bitrate= 244.9kbits/s dup=1 drop=0 speed= 7.4x    frame=25838 fps=177 q=32.0 size=   32225kB time=00:17:57.82 bitrate= 244.9kbits/s dup=1 drop=0 speed=7.39x    frame=25903 fps=177 q=32.0 size=   32296kB time=00:18:00.51 bitrate= 244.9kbits/s dup=1 drop=0 speed=7.38x    frame=25957 fps=177 q=32.0 size=   32363kB time=00:18:02.77 bitrate= 244.8kbits/s dup=1 drop=0 speed=7.37x    frame=26043 fps=177 q=32.0 size=   32448kB time=00:18:06.40 bitrate= 244.7kbits/s dup=1 drop=0 speed=7.37x    frame=26116 fps=177 q=32.0 size=   32534kB time=00:18:09.38 bitrate= 244.6kbits/s dup=1 drop=0 speed=7.37x    frame=26167 fps=176 q=32.0 size=   32623kB time=00:18:11.52 bitrate= 244.8kbits/s dup=1 drop=0 speed=7.36x    frame=26217 fps=176 q=32.0 size=   32695kB time=00:18:13.61 bitrate= 244.9kbits/s dup=1 drop=0 speed=7.35x    frame=26269 fps=176 q=32.0 size=   32776kB time=00:18:15.78 bitrate= 245.0kbits/s dup=1 drop=0 speed=7.33x    frame=26353 fps=176 q=32.0 size=   32855kB time=00:18:19.28 bitrate= 244.8kbits/s dup=1 drop=0 speed=7.33x    frame=26417 fps=176 q=32.0 size=   32945kB time=00:18:21.97 bitrate= 244.9kbits/s dup=1 drop=0 speed=7.33x    frame=26482 fps=175 q=32.0 size=   33029kB time=00:18:24.66 bitrate= 244.9kbits/s dup=1 drop=0 speed=7.32x    frame=26565 fps=175 q=32.0 size=   33116kB time=00:18:28.16 bitrate= 244.8kbits/s dup=1 drop=0 speed=7.32x    frame=26657 fps=175 q=32.0 size=   33175kB time=00:18:31.95 bitrate= 244.4kbits/s dup=1 drop=0 speed=7.32x    frame=26744 fps=175 q=32.0 size=   33250kB time=00:18:35.62 bitrate= 244.2kbits/s dup=1 drop=0 speed=7.32x    frame=26807 fps=175 q=32.0 size=   33341kB time=00:18:38.23 bitrate= 244.3kbits/s dup=1 drop=0 speed=7.31x    frame=26838 fps=175 q=32.0 size=   33406kB time=00:18:39.51 bitrate= 244.4kbits/s dup=1 drop=0 speed=7.29x    frame=26871 fps=174 q=32.0 size=   33474kB time=00:18:40.87 bitrate= 244.6kbits/s dup=1 drop=0 speed=7.28x    frame=26917 fps=174 q=32.0 size=   33569kB time=00:18:42.79 bitrate= 244.9kbits/s dup=1 drop=0 speed=7.27x    frame=26951 fps=174 q=32.0 size=   33632kB time=00:18:44.24 bitrate= 245.1kbits/s dup=1 drop=0 speed=7.25x    frame=26993 fps=174 q=32.0 size=   33731kB time=00:18:45.99 bitrate= 245.4kbits/s dup=1 drop=0 speed=7.24x    frame=27039 fps=173 q=32.0 size=   33813kB time=00:18:47.91 bitrate= 245.6kbits/s dup=1 drop=0 speed=7.23x    frame=27093 fps=173 q=32.0 size=   33897kB time=00:18:50.17 bitrate= 245.7kbits/s dup=1 drop=0 speed=7.22x    frame=27187 fps=173 q=32.0 size=   33977kB time=00:18:54.10 bitrate= 245.4kbits/s dup=1 drop=0 speed=7.22x    frame=27261 fps=173 q=32.0 size=   34075kB time=00:18:57.17 bitrate= 245.5kbits/s dup=1 drop=0 speed=7.22x    frame=27294 fps=173 q=32.0 size=   34191kB time=00:18:58.53 bitrate= 246.0kbits/s dup=1 drop=0 speed= 7.2x    frame=27333 fps=172 q=32.0 size=   34297kB time=00:19:00.16 bitrate= 246.4kbits/s dup=1 drop=0 speed=7.19x    frame=27414 fps=172 q=32.0 size=   34419kB time=00:19:03.53 bitrate= 246.6kbits/s dup=1 drop=0 speed=7.19x    frame=27496 fps=172 q=32.0 size=   34519kB time=00:19:06.98 bitrate= 246.5kbits/s dup=1 drop=0 speed=7.19x    frame=27555 fps=172 q=32.0 size=   34636kB time=00:19:09.41 bitrate= 246.9kbits/s dup=1 drop=0 speed=7.18x    frame=27637 fps=172 q=32.0 size=   34743kB time=00:19:12.87 bitrate= 246.9kbits/s dup=1 drop=0 speed=7.18x    frame=27713 fps=172 q=32.0 size=   34815kB time=00:19:16.03 bitrate= 246.7kbits/s dup=1 drop=0 speed=7.17x    frame=27752 fps=172 q=32.0 size=   34944kB time=00:19:17.65 bitrate= 247.3kbits/s dup=1 drop=0 speed=7.16x    frame=27822 fps=172 q=32.0 size=   35034kB time=00:19:20.55 bitrate= 247.3kbits/s dup=1 drop=0 speed=7.16x    frame=27875 fps=171 q=32.0 size=   35139kB time=00:19:22.81 bitrate= 247.6kbits/s dup=1 drop=0 speed=7.15x    frame=27919 fps=171 q=32.0 size=   35240kB time=00:19:24.60 bitrate= 247.9kbits/s dup=1 drop=0 speed=7.14x    frame=27975 fps=171 q=32.0 size=   35310kB time=00:19:26.95 bitrate= 247.9kbits/s dup=1 drop=0 speed=7.13x    frame=28030 fps=171 q=32.0 size=   35410kB time=00:19:29.25 bitrate= 248.1kbits/s dup=1 drop=0 speed=7.12x    frame=28115 fps=171 q=32.0 size=   35509kB time=00:19:32.80 bitrate= 248.0kbits/s dup=1 drop=0 speed=7.12x    frame=28188 fps=171 q=32.0 size=   35614kB time=00:19:35.83 bitrate= 248.1kbits/s dup=1 drop=0 speed=7.11x    frame=28291 fps=171 q=32.0 size=   35727kB time=00:19:40.13 bitrate= 248.0kbits/s dup=1 drop=0 speed=7.12x    frame=28403 fps=171 q=32.0 size=   35808kB time=00:19:44.79 bitrate= 247.6kbits/s dup=1 drop=0 speed=7.12x    frame=28493 fps=171 q=32.0 size=   35885kB time=00:19:48.54 bitrate= 247.3kbits/s dup=1 drop=0 speed=7.13x    frame=28591 fps=171 q=32.0 size=   35971kB time=00:19:52.64 bitrate= 247.1kbits/s dup=1 drop=0 speed=7.13x    frame=28708 fps=171 q=32.0 size=   36062kB time=00:19:57.50 bitrate= 246.7kbits/s dup=1 drop=0 speed=7.14x    frame=28818 fps=171 q=32.0 size=   36130kB time=00:20:02.11 bitrate= 246.2kbits/s dup=1 drop=0 speed=7.14x    frame=28894 fps=171 q=32.0 size=   36226kB time=00:20:05.27 bitrate= 246.2kbits/s dup=1 drop=0 speed=7.14x    frame=28952 fps=171 q=32.0 size=   36287kB time=00:20:07.70 bitrate= 246.1kbits/s dup=1 drop=0 speed=7.13x    frame=29012 fps=171 q=32.0 size=   36360kB time=00:20:10.21 bitrate= 246.1kbits/s dup=1 drop=0 speed=7.12x    frame=29091 fps=171 q=32.0 size=   36471kB time=00:20:13.50 bitrate= 246.2kbits/s dup=1 drop=0 speed=7.12x    frame=29178 fps=171 q=32.0 size=   36589kB time=00:20:17.13 bitrate= 246.3kbits/s dup=1 drop=0 speed=7.12x    frame=29252 fps=171 q=32.0 size=   36682kB time=00:20:20.20 bitrate= 246.3kbits/s dup=1 drop=0 speed=7.12x    frame=29299 fps=170 q=32.0 size=   36779kB time=00:20:22.16 bitrate= 246.5kbits/s dup=1 drop=0 speed=7.11x    frame=29366 fps=170 q=32.0 size=   36875kB time=00:20:24.93 bitrate= 246.6kbits/s dup=1 drop=0 speed= 7.1x    frame=29471 fps=170 q=32.0 size=   36973kB time=00:20:29.33 bitrate= 246.4kbits/s dup=1 drop=0 speed=7.11x    frame=29536 fps=170 q=32.0 size=   37041kB time=00:20:32.06 bitrate= 246.3kbits/s dup=1 drop=0 speed= 7.1x    frame=29601 fps=170 q=32.0 size=   37155kB time=00:20:34.79 bitrate= 246.5kbits/s dup=1 drop=0 speed= 7.1x    frame=29652 fps=170 q=32.0 size=   37237kB time=00:20:36.88 bitrate= 246.6kbits/s dup=1 drop=0 speed=7.09x    frame=29742 fps=170 q=32.0 size=   37350kB time=00:20:40.64 bitrate= 246.6kbits/s dup=1 drop=0 speed=7.09x    frame=29875 fps=170 q=32.0 size=   37449kB time=00:20:46.18 bitrate= 246.2kbits/s dup=1 drop=0 speed= 7.1x    frame=29964 fps=170 q=32.0 size=   37523kB time=00:20:49.89 bitrate= 245.9kbits/s dup=1 drop=0 speed= 7.1x    frame=30028 fps=170 q=32.0 size=   37589kB time=00:20:52.58 bitrate= 245.8kbits/s dup=1 drop=0 speed= 7.1x    frame=30098 fps=170 q=32.0 size=   37671kB time=00:20:55.48 bitrate= 245.8kbits/s dup=1 drop=0 speed=7.09x    frame=30164 fps=170 q=32.0 size=   37744kB time=00:20:58.26 bitrate= 245.7kbits/s dup=1 drop=0 speed=7.09x    frame=30234 fps=170 q=32.0 size=   37840kB time=00:21:01.16 bitrate= 245.8kbits/s dup=1 drop=0 speed=7.08x    frame=30315 fps=170 q=32.0 size=   37944kB time=00:21:04.57 bitrate= 245.8kbits/s dup=1 drop=0 speed=7.08x    frame=30445 fps=170 q=32.0 size=   38046kB time=00:21:09.95 bitrate= 245.4kbits/s dup=1 drop=0 speed=7.09x    frame=30567 fps=170 q=32.0 size=   38143kB time=00:21:15.03 bitrate= 245.1kbits/s dup=1 drop=0 speed= 7.1x    frame=30675 fps=170 q=32.0 size=   38259kB time=00:21:19.55 bitrate= 244.9kbits/s dup=1 drop=0 speed=7.11x    frame=30778 fps=170 q=32.0 size=   38398kB time=00:21:23.86 bitrate= 245.0kbits/s dup=1 drop=0 speed=7.11x    frame=30866 fps=170 q=32.0 size=   38497kB time=00:21:27.53 bitrate= 244.9kbits/s dup=1 drop=0 speed=7.11x    frame=30977 fps=171 q=32.0 size=   38625kB time=00:21:32.13 bitrate= 244.9kbits/s dup=1 drop=0 speed=7.12x    frame=31043 fps=170 q=32.0 size=   38734kB time=00:21:34.91 bitrate= 245.0kbits/s dup=1 drop=0 speed=7.11x    frame=31106 fps=170 q=32.0 size=   38828kB time=00:21:37.51 bitrate= 245.1kbits/s dup=1 drop=0 speed=7.11x    frame=31168 fps=170 q=32.0 size=   38905kB time=00:21:40.11 bitrate= 245.1kbits/s dup=1 drop=0 speed= 7.1x    frame=31222 fps=170 q=32.0 size=   39004kB time=00:21:42.37 bitrate= 245.3kbits/s dup=1 drop=0 speed=7.09x    frame=31318 fps=170 q=32.0 size=   39130kB time=00:21:46.39 bitrate= 245.4kbits/s dup=1 drop=0 speed= 7.1x    frame=31377 fps=170 q=32.0 size=   39216kB time=00:21:48.82 bitrate= 245.5kbits/s dup=1 drop=0 speed=7.09x    frame=31435 fps=170 q=32.0 size=   39350kB time=00:21:51.25 bitrate= 245.8kbits/s dup=1 drop=0 speed=7.08x    frame=31479 fps=170 q=32.0 size=   39457kB time=00:21:53.08 bitrate= 246.2kbits/s dup=1 drop=0 speed=7.07x    frame=31531 fps=169 q=32.0 size=   39583kB time=00:21:55.26 bitrate= 246.5kbits/s dup=1 drop=0 speed=7.06x    frame=31586 fps=169 q=32.0 size=   39699kB time=00:21:57.52 bitrate= 246.8kbits/s dup=1 drop=0 speed=7.06x    frame=31631 fps=169 q=32.0 size=   39793kB time=00:21:59.44 bitrate= 247.1kbits/s dup=1 drop=0 speed=7.05x    frame=31678 fps=169 q=32.0 size=   39903kB time=00:22:01.40 bitrate= 247.4kbits/s dup=1 drop=0 speed=7.04x    frame=31716 fps=169 q=32.0 size=   39983kB time=00:22:02.98 bitrate= 247.6kbits/s dup=1 drop=0 speed=7.03x    frame=31745 fps=168 q=32.0 size=   40086kB time=00:22:04.18 bitrate= 248.0kbits/s dup=1 drop=0 speed=7.02x    frame=31774 fps=168 q=32.0 size=   40187kB time=00:22:05.41 bitrate= 248.4kbits/s dup=1 drop=0 speed=   7x    frame=31842 fps=168 q=32.0 size=   40305kB time=00:22:08.23 bitrate= 248.6kbits/s dup=1 drop=0 speed=   7x    frame=31899 fps=168 q=32.0 size=   40401kB time=00:22:10.62 bitrate= 248.7kbits/s dup=1 drop=0 speed=6.99x    frame=31977 fps=168 q=32.0 size=   40497kB time=00:22:13.86 bitrate= 248.7kbits/s dup=1 drop=0 speed=6.99x    frame=32040 fps=167 q=32.0 size=   40628kB time=00:22:16.47 bitrate= 249.0kbits/s dup=1 drop=0 speed=6.99x    frame=32111 fps=167 q=32.0 size=   40748kB time=00:22:19.45 bitrate= 249.2kbits/s dup=1 drop=0 speed=6.98x    frame=32180 fps=167 q=32.0 size=   40861kB time=00:22:22.35 bitrate= 249.4kbits/s dup=1 drop=0 speed=6.98x    frame=32234 fps=167 q=32.0 size=   41001kB time=00:22:24.57 bitrate= 249.8kbits/s dup=1 drop=0 speed=6.97x    frame=32254 fps=167 q=32.0 size=   41080kB time=00:22:25.43 bitrate= 250.1kbits/s dup=1 drop=0 speed=6.95x    frame=32314 fps=167 q=32.0 size=   41202kB time=00:22:27.90 bitrate= 250.4kbits/s dup=1 drop=0 speed=6.95x    frame=32353 fps=166 q=32.0 size=   41316kB time=00:22:29.52 bitrate= 250.8kbits/s dup=1 drop=0 speed=6.94x    frame=32411 fps=166 q=32.0 size=   41438kB time=00:22:31.95 bitrate= 251.1kbits/s dup=1 drop=0 speed=6.93x    frame=32493 fps=166 q=32.0 size=   41591kB time=00:22:35.41 bitrate= 251.4kbits/s dup=1 drop=0 speed=6.93x    frame=32561 fps=166 q=32.0 size=   41726kB time=00:22:38.23 bitrate= 251.7kbits/s dup=1 drop=0 speed=6.93x    frame=32631 fps=166 q=32.0 size=   41870kB time=00:22:41.13 bitrate= 252.0kbits/s dup=1 drop=0 speed=6.93x    frame=32712 fps=166 q=32.0 size=   42012kB time=00:22:44.50 bitrate= 252.2kbits/s dup=1 drop=0 speed=6.93x    frame=32764 fps=166 q=32.0 size=   42156kB time=00:22:46.72 bitrate= 252.7kbits/s dup=1 drop=0 speed=6.92x    frame=32838 fps=166 q=32.0 size=   42289kB time=00:22:49.75 bitrate= 252.9kbits/s dup=1 drop=0 speed=6.92x    frame=32892 fps=166 q=32.0 size=   42412kB time=00:22:52.01 bitrate= 253.2kbits/s dup=1 drop=0 speed=6.91x    frame=32955 fps=166 q=32.0 size=   42581kB time=00:22:54.65 bitrate= 253.8kbits/s dup=1 drop=0 speed=6.91x    frame=33032 fps=166 q=32.0 size=   42721kB time=00:22:57.85 bitrate= 254.0kbits/s dup=1 drop=0 speed= 6.9x    frame=33136 fps=166 q=32.0 size=   42849kB time=00:23:02.25 bitrate= 253.9kbits/s dup=1 drop=0 speed=6.91x    frame=33219 fps=166 q=32.0 size=   42990kB time=00:23:05.70 bitrate= 254.1kbits/s dup=1 drop=0 speed=6.91x    frame=33317 fps=166 q=32.0 size=   43102kB time=00:23:09.76 bitrate= 254.1kbits/s dup=1 drop=0 speed=6.91x    frame=33479 fps=166 q=32.0 size=   43240kB time=00:23:16.50 bitrate= 253.6kbits/s dup=1 drop=0 speed=6.93x    frame=33623 fps=166 q=32.0 size=   43358kB time=00:23:22.51 bitrate= 253.3kbits/s dup=1 drop=0 speed=6.94x    frame=33772 fps=167 q=32.0 size=   43466kB time=00:23:28.74 bitrate= 252.8kbits/s dup=1 drop=0 speed=6.95x    frame=33890 fps=167 q=32.0 size=   43570kB time=00:23:33.65 bitrate= 252.5kbits/s dup=1 drop=0 speed=6.96x    frame=33951 fps=167 q=32.0 size=   43691kB time=00:23:36.17 bitrate= 252.7kbits/s dup=1 drop=0 speed=6.96x    frame=34022 fps=167 q=32.0 size=   43809kB time=00:23:39.15 bitrate= 252.9kbits/s dup=1 drop=0 speed=6.95x    frame=34139 fps=167 q=32.0 size=   43927kB time=00:23:44.02 bitrate= 252.7kbits/s dup=1 drop=0 speed=6.96x    frame=34219 fps=167 q=32.0 size=   43983kB time=00:23:47.39 bitrate= 252.4kbits/s dup=1 drop=0 speed=6.96x    frame=34299 fps=167 q=32.0 size=   44092kB time=00:23:50.72 bitrate= 252.5kbits/s dup=1 drop=0 speed=6.96x    frame=34388 fps=167 q=32.0 size=   44218kB time=00:23:54.47 bitrate= 252.5kbits/s dup=1 drop=0 speed=6.96x    frame=34504 fps=167 q=32.0 size=   44320kB time=00:23:59.25 bitrate= 252.3kbits/s dup=1 drop=0 speed=6.97x    frame=34596 fps=167 q=32.0 size=   44390kB time=00:24:03.13 bitrate= 252.0kbits/s dup=1 drop=0 speed=6.97x    frame=34640 fps=167 q=32.0 size=   44493kB time=00:24:04.92 bitrate= 252.3kbits/s dup=1 drop=0 speed=6.96x    frame=34702 fps=167 q=32.0 size=   44591kB time=00:24:07.53 bitrate= 252.4kbits/s dup=1 drop=0 speed=6.96x    frame=34756 fps=167 q=32.0 size=   44689kB time=00:24:09.75 bitrate= 252.5kbits/s dup=1 drop=0 speed=6.95x    frame=34813 fps=166 q=32.0 size=   44805kB time=00:24:12.13 bitrate= 252.8kbits/s dup=1 drop=0 speed=6.94x    frame=34910 fps=167 q=32.0 size=   44963kB time=00:24:16.19 bitrate= 252.9kbits/s dup=1 drop=0 speed=6.95x    frame=35112 fps=167 q=32.0 size=   45091kB time=00:24:24.59 bitrate= 252.2kbits/s dup=1 drop=0 speed=6.97x    [mp4 @ 0x4064f20] Starting second pass: moving the moov atom to the beginning of the file
frame=35150 fps=167 q=-1.0 Lsize=   45964kB time=00:24:26.00 bitrate= 256.8kbits/s dup=1 drop=0 speed=6.97x    
video:35713kB audio:9417kB subtitle:0kB other streams:0kB global headers:0kB muxing overhead: 1.846107%
[libx264 @ 0x4108f20] frame I:304   Avg QP:21.53  size: 16666
[libx264 @ 0x4108f20] frame P:9525  Avg QP:24.24  size:  2509
[libx264 @ 0x4108f20] frame B:25321 Avg QP:28.87  size:   300
[libx264 @ 0x4108f20] consecutive B-frames:  2.6%  3.0%  3.2% 91.2%
[libx264 @ 0x4108f20] mb I  I16..4: 21.4% 58.8% 19.7%
[libx264 @ 0x4108f20] mb P  I16..4:  5.2%  6.3%  1.0%  P16..4: 31.5%  4.6%  3.4%  0.1%  0.0%    skip:47.9%
[libx264 @ 0x4108f20] mb B  I16..4:  0.3%  0.3%  0.0%  B16..8: 11.3%  0.7%  0.1%  direct: 0.3%  skip:87.0%  L0:39.3% L1:58.8% BI: 1.9%
[libx264 @ 0x4108f20] 8x8 transform intra:52.0% inter:63.7%
[libx264 @ 0x4108f20] coded y,uvDC,uvAC intra: 32.5% 50.4% 6.6% inter: 1.3% 3.7% 0.0%
[libx264 @ 0x4108f20] i16 v,h,dc,p: 36% 36% 16% 12%
[libx264 @ 0x4108f20] i8 v,h,dc,ddl,ddr,vr,hd,vl,hu: 21% 23% 35%  4%  3%  3%  4%  3%  5%
[libx264 @ 0x4108f20] i4 v,h,dc,ddl,ddr,vr,hd,vl,hu: 27% 22% 17%  5%  6%  6%  6%  5%  5%
[libx264 @ 0x4108f20] i8c dc,h,v,p: 46% 26% 21%  7%
[libx264 @ 0x4108f20] Weighted P-Frames: Y:1.6% UV:1.3%
[libx264 @ 0x4108f20] ref P L0: 62.6% 10.5% 12.2%  3.9%  3.2%  2.7%  2.7%  2.0%  0.2%  0.0%
[libx264 @ 0x4108f20] ref B L0: 84.2%  7.8%  3.3%  1.8%  1.1%  1.1%  0.7%
[libx264 @ 0x4108f20] ref B L1: 96.5%  3.5%
[libx264 @ 0x4108f20] kb/s:199.56
